<svg width="284" height="38" xmlns="http://www.w3.org/2000/svg"><g fill="none" fill-rule="evenodd"><path d="M31.07 17.95H0v1.1c0 8.5 6.57 15.05 15.27 15.05.8 0 1.1.04 1.9-.06 0 1.3-.16 3.2-.16 3.2s4.16-3.04 5.06-4.74c5.3-2.5 9-7.25 9-13.45v-1.1zM29.71 12.21c.6 1.2 1 2.5 1.3 3.8h-31c.3-1.3.7-2.6 1.3-3.8.7-1.4 1.6-2.7 2.7-3.8 1.2-1.2 2.6-2.3 4.2-3.1l-2.7-3.9c-.2-.2-.1-.5.1-.7.2-.1.5 0 .7.2l2.8 4.1c1.9-.8 4.1-1.3 6.4-1.3 2.3 0 4.4.4 6.4 1.3l2.8-4.1c.2-.3.5-.4.7-.2.2.1.3.5.1.7l-2.7 3.9c1.6.8 3 1.9 4.2 3.1 1.1 1.1 2.1 2.4 2.7 3.8zm-7.21-.02c.9 0 1.7-.8 1.7-1.7 0-.9-.7-1.7-1.7-1.7-.9 0-1.7.7-1.7 1.7 0 .9.7 1.7 1.7 1.7zm-13 0c1 0 1.7-.8 1.7-1.7 0-.9-.8-1.7-1.7-1.7-.9 0-1.7.7-1.7 1.7 0 .9.7 1.7 1.7 1.7z" fill="#1CA9F5"/><path d="M54.22 28l-2.31-5.9h-7.44L42.18 28H40l7.34-18.64h1.81L56.45 28h-2.23zm-2.98-7.85l-2.16-5.75a30.8 30.8 0 0 1-.87-2.68c-.18.82-.45 1.71-.8 2.68l-2.18 5.75h6zM68.2 28v-9c0-1.14-.26-1.98-.78-2.54-.51-.56-1.32-.84-2.42-.84-1.46 0-2.52.4-3.2 1.18-.68.79-1.02 2.09-1.02 3.9V28h-2.1V14.09h1.71l.34 1.9h.1a4.3 4.3 0 0 1 1.82-1.6 5.9 5.9 0 0 1 2.6-.56c1.68 0 2.94.4 3.79 1.21.84.81 1.27 2.1 1.27 3.88V28H68.2zm15.9-1.87h-.1c-.98 1.42-2.44 2.12-4.38 2.12a5.17 5.17 0 0 1-4.24-1.86c-1.01-1.25-1.52-3.02-1.52-5.3 0-2.3.5-4.08 1.52-5.35a5.13 5.13 0 0 1 4.24-1.9c1.9 0 3.34.68 4.35 2.05h.16l-.09-1-.05-.98V8.25h2.1V28h-1.7l-.28-1.87zm-4.2.36c1.43 0 2.47-.4 3.12-1.18.65-.78.97-2.04.97-3.78v-.45c0-1.97-.33-3.38-.98-4.22-.66-.84-1.7-1.26-3.14-1.26-1.24 0-2.19.48-2.84 1.44-.66.96-.99 2.31-.99 4.07 0 1.77.33 3.12.98 4.02.65.9 1.61 1.36 2.87 1.36zm17.02-12.66c.61 0 1.17.05 1.66.15l-.3 1.96a7.18 7.18 0 0 0-1.52-.2 3.7 3.7 0 0 0-2.88 1.38 5 5 0 0 0-1.2 3.42V28h-2.11V14.09h1.74l.24 2.57h.1c.52-.9 1.14-1.6 1.87-2.1a4.2 4.2 0 0 1 2.4-.73zm16.27 7.2c0 2.27-.57 4.04-1.71 5.31a6.04 6.04 0 0 1-4.74 1.91c-1.24 0-2.35-.29-3.31-.87a5.78 5.78 0 0 1-2.24-2.52 8.76 8.76 0 0 1-.78-3.83c0-2.27.56-4.03 1.7-5.3 1.13-1.27 2.7-1.9 4.72-1.9 1.95 0 3.5.65 4.64 1.94 1.15 1.3 1.72 3.05 1.72 5.26zm-10.6 0c0 1.78.36 3.13 1.07 4.06.7.93 1.75 1.4 3.13 1.4s2.43-.46 3.14-1.4c.72-.92 1.08-2.27 1.08-4.06 0-1.77-.36-3.11-1.08-4.03-.71-.92-1.77-1.38-3.16-1.38-1.38 0-2.42.45-3.13 1.36-.7.9-1.05 2.26-1.05 4.05zM119 28h-2.1V14.09h2.1V28zm-2.28-17.68c0-.49.12-.84.35-1.06.24-.23.54-.34.9-.34.33 0 .62.11.87.34.24.23.37.58.37 1.06 0 .47-.13.82-.37 1.06-.25.23-.54.34-.88.34-.35 0-.65-.11-.89-.34-.23-.24-.35-.6-.35-1.06zm16.22 15.81h-.11c-.98 1.42-2.43 2.12-4.37 2.12a5.17 5.17 0 0 1-4.25-1.86c-1-1.25-1.51-3.02-1.51-5.3 0-2.3.5-4.08 1.52-5.35a5.13 5.13 0 0 1 4.24-1.9c1.89 0 3.34.68 4.34 2.05h.17l-.1-1-.04-.98V8.25h2.1V28h-1.7l-.29-1.87zm-4.21.36c1.44 0 2.48-.4 3.13-1.18.64-.78.97-2.04.97-3.78v-.45c0-1.97-.33-3.38-.99-4.22-.65-.84-1.7-1.26-3.14-1.26-1.23 0-2.18.48-2.84 1.44-.65.96-.98 2.31-.98 4.07 0 1.77.33 3.12.98 4.02.65.9 1.6 1.36 2.87 1.36zm28.1 1.51h-10.35V9.44h10.34v1.92h-8.19v5.98h7.7v1.9h-7.7v6.83h8.2V28zm13.31 0v-9c0-1.14-.26-1.98-.77-2.54-.52-.56-1.33-.84-2.43-.84-1.46 0-2.52.4-3.2 1.18-.68.79-1.01 2.09-1.01 3.9V28h-2.11V14.09h1.71l.34 1.9h.1a4.3 4.3 0 0 1 1.82-1.6 5.9 5.9 0 0 1 2.6-.56c1.68 0 2.94.4 3.79 1.21.84.81 1.27 2.1 1.27 3.88V28h-2.11zm10.93-1.49a6.88 6.88 0 0 0 1.9-.25v1.61c-.22.11-.56.2-1 .28-.45.07-.85.1-1.2.1-2.7 0-4.04-1.41-4.04-4.25v-8.28h-2v-1.01l2-.88.89-2.97h1.22v3.23h4.03v1.63h-4.03v8.2c0 .83.2 1.47.6 1.92.39.45.94.67 1.63.67zm14.2 1.49v-9c0-1.14-.25-1.98-.77-2.54-.51-.56-1.32-.84-2.42-.84-1.47 0-2.54.4-3.2 1.2-.68.8-1.02 2.1-1.02 3.9V28h-2.1V8.25h2.1v5.98c0 .71-.03 1.31-.1 1.79h.13c.41-.67 1-1.2 1.77-1.58a5.76 5.76 0 0 1 2.62-.58c1.7 0 2.98.4 3.83 1.21.85.8 1.27 2.1 1.27 3.85V28h-2.1zm8.42-13.91v9.02c0 1.14.26 1.98.78 2.54.51.56 1.32.84 2.42.84 1.46 0 2.52-.4 3.2-1.2.67-.79 1-2.09 1-3.9v-7.3h2.11V28h-1.74l-.3-1.87h-.12a4.2 4.2 0 0 1-1.8 1.58c-.76.36-1.63.54-2.61.54-1.7 0-2.96-.4-3.8-1.2-.85-.8-1.27-2.1-1.27-3.86v-9.1h2.13zm22.96 10.11c0 1.3-.49 2.3-1.45 3-.97.7-2.32 1.05-4.06 1.05-1.85 0-3.29-.29-4.32-.87v-1.96a10.44 10.44 0 0 0 4.37 1.1c1.1 0 1.94-.18 2.54-.53.59-.35.89-.89.89-1.6 0-.55-.24-1.01-.7-1.4-.48-.38-1.4-.84-2.76-1.36a14.9 14.9 0 0 1-2.76-1.27 3.77 3.77 0 0 1-1.22-1.22c-.26-.46-.4-1-.4-1.64 0-1.13.46-2.03 1.39-2.68a6.45 6.45 0 0 1 3.8-.99c1.49 0 2.95.3 4.38.92l-.74 1.71c-1.4-.58-2.67-.86-3.8-.86-1 0-1.75.15-2.26.47-.5.31-.76.74-.76 1.3 0 .36.1.68.28.94.2.27.5.52.92.75.43.24 1.24.58 2.44 1.03 1.65.6 2.77 1.2 3.35 1.82.58.6.87 1.37.87 2.3zm5.53 3.8h-2.1V14.09h2.1V28zm-2.28-17.68c0-.49.11-.84.35-1.06.24-.23.54-.34.9-.34.33 0 .62.11.87.34.24.23.36.58.36 1.06 0 .47-.12.82-.36 1.06-.25.23-.54.34-.88.34-.35 0-.65-.11-.89-.34-.24-.24-.35-.6-.35-1.06zM245.2 28l-.41-1.98h-.1a5.85 5.85 0 0 1-2.08 1.77c-.69.3-1.55.46-2.58.46a4.65 4.65 0 0 1-3.25-1.06c-.78-.71-1.17-1.72-1.17-3.04 0-2.8 2.25-4.28 6.74-4.41l2.36-.08v-.86c0-1.1-.23-1.9-.7-2.42s-1.22-.78-2.26-.78c-1.16 0-2.47.35-3.93 1.06l-.65-1.6a9.9 9.9 0 0 1 4.71-1.2c1.66 0 2.89.37 3.69 1.1.8.74 1.2 1.92 1.2 3.54V28h-1.56zm-4.75-1.49c1.3 0 2.34-.36 3.09-1.07a4 4 0 0 0 1.12-3.03v-1.25l-2.1.09c-1.68.06-2.89.32-3.63.78-.74.46-1.11 1.18-1.11 2.15 0 .76.23 1.34.69 1.74.46.4 1.1.6 1.94.6zm19.64-2.3c0 1.29-.49 2.29-1.45 2.99-.97.7-2.32 1.05-4.06 1.05-1.85 0-3.29-.29-4.32-.87v-1.96a10.44 10.44 0 0 0 4.37 1.1c1.1 0 1.94-.18 2.54-.53.59-.35.88-.89.88-1.6 0-.55-.23-1.01-.7-1.4-.47-.38-1.39-.84-2.75-1.36a14.9 14.9 0 0 1-2.76-1.27 3.77 3.77 0 0 1-1.22-1.22c-.27-.46-.4-1-.4-1.64 0-1.13.46-2.03 1.39-2.68a6.45 6.45 0 0 1 3.8-.99c1.49 0 2.95.3 4.38.92l-.75 1.71c-1.4-.58-2.66-.86-3.8-.86-.99 0-1.74.15-2.25.47-.5.31-.76.74-.76 1.3 0 .36.1.68.28.94.2.27.5.52.92.75.43.24 1.24.58 2.44 1.03 1.65.6 2.77 1.2 3.35 1.82.58.6.87 1.37.87 2.3zm7.92 2.3a6.88 6.88 0 0 0 1.9-.25v1.61c-.23.11-.56.2-1 .28-.45.07-.85.1-1.2.1-2.7 0-4.04-1.41-4.04-4.25v-8.28h-2v-1.01l2-.88.88-2.97h1.22v3.23h4.04v1.63h-4.04v8.2c0 .83.2 1.47.6 1.92.4.45.94.67 1.64.67zm13.66-2.3c0 1.29-.48 2.29-1.45 2.99-.96.7-2.32 1.05-4.06 1.05-1.85 0-3.29-.29-4.32-.87v-1.96a10.44 10.44 0 0 0 4.37 1.1c1.1 0 1.95-.18 2.54-.53.59-.35.89-.89.89-1.6 0-.55-.24-1.01-.7-1.4-.48-.38-1.4-.84-2.76-1.36a14.9 14.9 0 0 1-2.76-1.27 3.77 3.77 0 0 1-1.22-1.22c-.26-.46-.4-1-.4-1.64 0-1.13.46-2.03 1.39-2.68a6.45 6.45 0 0 1 3.8-.99c1.5 0 2.96.3 4.39.92l-.75 1.71c-1.4-.58-2.66-.86-3.8-.86-1 0-1.75.15-2.26.47-.5.31-.76.74-.76 1.3 0 .36.1.68.29.94.19.27.5.52.92.75.42.24 1.23.58 2.43 1.03 1.65.6 2.77 1.2 3.35 1.82.58.6.87 1.37.87 2.3z" fill="#FFF"/></g></svg>